Patient4_TMGait_0pt2_02_right_15_EMG.mot
version=1
nRows=13
nColumns=33
inDegrees=no
endheader
time	1LAddLong	2LGlutMax	3LGlutMed	4LIliopsoas	5LSemiMemb	6LBicFemLong	7LRecFem	8LVastMed	9LVastLat	10LGasMed	11LTibAnt	12lTibPost	13LPeroneusLong	14LSol	15LExtDigLong	16LFlexDigLong	17RAddLong	18RGlutMax	19RGlutMed	20RIliopsoas	21RSemiMemb	22RBicFemLong	23RRecFem	24RVastMed	25RVastLat	26RGasMed	27RTibAnt	28RTibPost	29RPeroneusLong	30RSol	31RExtDigLong	32RFlexDigLong
33.22	-0.034485	-0.080261	0.17563	-0.00061	-0.019836	0.11566	-0.056305	0.026398	-0.44708	0.048218	-0.029755	0.010681	0.049286	-0.13351	-0.041199	-0.027008	-0.042572	-0.16419	1.2506	0.096588	-0.16357	-0.039825	-0.24155	0.076447	0.041809	-0.009766	-0.12436	-0.002289	-0.043182	-0.062866	0.000458	-0.003815
33.221	-0.024261	-0.061035	0.030212	-0.015106	-0.006104	0.12344	-0.13641	0.016479	-0.30975	0.031128	-0.007477	0.011292	0.11643	-0.046844	0.11795	-0.023041	-0.11124	-0.17364	0.59845	0.090332	-0.14084	-0.03418	-0.24506	0.071716	0.037842	-0.003052	-0.16449	-0.000763	0.005951	-0.075073	-0.000305	-0.009613
33.222	-0.013123	0.006409	0.065765	-0.032196	-0.019379	0.10941	-0.17105	0.011597	-0.026398	0.032043	-0.009308	0.01236	0.23789	-0.049896	0.1651	-0.010681	-0.12756	-0.18585	0.10468	0.040894	-0.12344	-0.035706	-0.23941	0.10483	0.024719	-0.002747	-0.13947	-0.006866	0.012054	-0.10681	-0.000153	-0.00061
33.223	0.006104	0.045929	0.063019	0.000458	-0.005188	0.033264	-0.13489	-0.014648	0.12756	-0.017548	-0.018158	0.01236	0.30533	0.16632	0.15274	-0.006866	-0.10895	-0.18204	0.17441	-0.060883	-0.093079	-0.015259	-0.27023	0.083923	0.019684	-0.005035	-0.075378	-0.001678	0.00061	-0.10925	0.001678	-0.003052
33.224	0.013428	0.023956	0.042267	0.018158	-0.011139	0.020905	-0.073395	-0.012665	0.077057	-0.01297	0.001678	0.013885	-0.69626	0.21729	0.037384	-0.003815	-0.052948	-0.23056	1.4072	-0.12924	-0.069427	-0.035553	-0.26215	0.068817	0.035706	-0.005493	0.095062	-0.005798	-0.043182	-0.09903	0	0.000458
33.225	0.012665	0.0354	-0.009918	0.031738	0.041809	-0.048218	-0.01297	-0.009308	-0.11108	-0.010071	0.011902	0.011597	-0.53955	0.055389	-0.096436	-0.008545	-0.035095	-0.25223	1.4653	-0.16388	-0.045319	-0.029602	-0.25513	0.063019	0.028076	-0.007935	0.070801	-0.001373	-0.037537	-0.077972	0	-0.000305
33.226	0.029755	0.040283	0.019684	0.019226	0.034943	-0.26306	-0.002594	0.014801	-0.28931	-0.018616	-0.016022	0.011597	0.43274	0.112	-0.049133	-0.006256	-0.036163	-0.31937	1.0889	-0.17746	-0.042419	-0.023956	-0.29877	0.12283	0.044861	-0.001678	-0.13412	-0.003967	-0.003662	-0.072174	-0.000916	-0.005493
33.227	0.037689	0.080109	0.095978	0.00351	-0.014191	-0.24063	0.001678	0.039673	-0.17166	0.017853	0.002899	0.003815	0.032043	0.12604	-0.079651	-0.015411	-0.044708	-0.35187	0.79926	-0.066376	-0.02594	-0.040894	-0.32837	0.12878	0.049744	-0.00824	-0.13336	-0.002136	0.043488	-0.016022	-0.001831	0.004578
33.228	0.034027	0.079498	0.084229	0.008392	-0.037231	-0.10452	0.016479	0.028381	-0.088959	0.062103	0.016632	0.01358	-0.42694	0.083618	-0.071411	-0.014496	-0.05249	-0.32318	1.2328	-0.030518	-0.031738	-0.04303	-0.32883	0.099182	0.058441	0	-0.062256	-0.006256	0.055542	0.055084	-0.006104	0.008545
33.229	0.014801	0.1152	0.023346	-0.011597	-0.050964	-0.041046	0.089264	-0.00412	-0.062561	0.041504	-0.002441	0.001678	0.074005	0.049896	-0.030365	-0.000153	-0.027313	-0.28122	1.5059	-0.032959	-0.049286	-0.062561	-0.30792	0.11047	0.031433	-0.004578	-0.088959	-0.005951	0.03418	0.050049	0.000153	0.007782
33.23	0.013428	0.1593	-0.1297	-0.042267	0.015869	0.005646	0.085754	-0.00473	-0.025787	0.058136	0.009003	0.013123	-0.046082	0.027618	0.068817	0.007782	0.016785	-0.25116	1.0234	0.11185	-0.039368	-0.10193	-0.32074	0.077057	0.023346	-0.002136	-0.10529	-0.003357	0.04715	-0.023651	-0.002899	0.009308
33.231	0.019073	0.18509	0.007935	-0.029144	0.052032	-0.010071	0.10407	-0.023193	-0.020752	0.041046	-0.014648	0.014191	0.38345	-0.008392	0.072784	0.00885	0.027618	-0.25742	1.0204	0.11444	-0.028687	-0.12726	-0.26627	0.085602	0.015411	-0.004272	0.2475	-0.001984	0.056152	-0.049591	-0.005035	0.002747
33.232	0.024567	0.19073	-0.10086	0.002289	0.059967	-0.018158	0.071564	-0.044556	-0.03006	0.027771	-0.014191	0.019684	0.14618	0.12634	0.084991	0.010529	0.003815	-0.31326	1.0484	0.066528	-0.029297	-0.13657	-0.24704	0.071259	-0.001373	-0.006866	0.2504	0.00061	0.049286	-0.039978	-0.00061	0.000458
